<?xml version="1.0" encoding="UTF-8" standalone="no"?>
<!-- Created with Inkscape (http://www.inkscape.org/) -->

<svg
   xmlns:dc="http://purl.org/dc/elements/1.1/"
   xmlns:cc="http://creativecommons.org/ns#"
   xmlns:rdf="http://www.w3.org/1999/02/22-rdf-syntax-ns#"
   xmlns:svg="http://www.w3.org/2000/svg"
   xmlns="http://www.w3.org/2000/svg"
   xmlns:sodipodi="http://sodipodi.sourceforge.net/DTD/sodipodi-0.dtd"
   xmlns:inkscape="http://www.inkscape.org/namespaces/inkscape"
   width="19.999977"
   height="13.160861"
   id="svg3196"
   version="1.1"
   inkscape:version="0.48.2 r9819"
   sodipodi:docname="eye.svg">
  <defs
     id="defs3198">
    <filter
       inkscape:collect="always"
       id="filter4118"
       x="-0.41909546"
       width="1.8381909"
       y="-0.31133363"
       height="1.6226672"
       color-interpolation-filters="sRGB">
      <feGaussianBlur
         inkscape:collect="always"
         stdDeviation="1.2833373"
         id="feGaussianBlur4120" />
    </filter>
  </defs>
  <sodipodi:namedview
     id="base"
     pagecolor="#ffffff"
     bordercolor="#666666"
     borderopacity="1.0"
     inkscape:pageopacity="0.0"
     inkscape:pageshadow="2"
     inkscape:zoom="6.4205607"
     inkscape:cx="61.490661"
     inkscape:cy="-36.425299"
     inkscape:document-units="px"
     inkscape:current-layer="layer1"
     showgrid="false"
     inkscape:window-width="1920"
     inkscape:window-height="1031"
     inkscape:window-x="0"
     inkscape:window-y="25"
     inkscape:window-maximized="1"
     fit-margin-top="0"
     fit-margin-left="0"
     fit-margin-right="0"
     fit-margin-bottom="0" />
  <metadata
     id="metadata3201">
    <rdf:RDF>
      <cc:Work
         rdf:about="">
        <dc:format>image/svg+xml</dc:format>
        <dc:type
           rdf:resource="http://purl.org/dc/dcmitype/StillImage" />
        <dc:title></dc:title>
      </cc:Work>
    </rdf:RDF>
  </metadata>
  <g
     inkscape:label="Calque 1"
     inkscape:groupmode="layer"
     id="layer1"
     transform="translate(-3.4642639,-3.3631451)">
    <path
       sodipodi:type="arc"
       style="fill:#f9f9f9;stroke:#000000;stroke-width:4;stroke-miterlimit:4;stroke-opacity:1;stroke-dasharray:none"
       id="path3251"
       sodipodi:cx="105.71429"
       sodipodi:cy="429.50504"
       sodipodi:rx="54.285713"
       sodipodi:ry="25.714285"
       d="m 160,429.50504 c 0,14.2016 -24.30454,25.71428 -54.28571,25.71428 -29.981175,0 -54.285716,-11.51268 -54.285716,-25.71428 0,-14.20161 24.304541,-25.71429 54.285716,-25.71429 29.98117,0 54.28571,11.51268 54.28571,25.71429 z"
       transform="matrix(0.17330582,0,0,0.17330582,-5.0199227,-62.714763)" />
    <path
       sodipodi:type="arc"
       style="fill:#2532ec;fill-opacity:1;stroke:#000000;stroke-width:2;stroke-miterlimit:4;stroke-opacity:1;stroke-dasharray:none"
       id="path4037"
       sodipodi:cx="104.28571"
       sodipodi:cy="429.50504"
       sodipodi:rx="7.1428571"
       sodipodi:ry="25.714285"
       d="m 111.42857,429.50504 c 0,14.2016 -3.19797,25.71428 -7.14286,25.71428 -3.94489,0 -7.142854,-11.51268 -7.142854,-25.71428 0,-14.20161 3.197964,-25.71429 7.142854,-25.71429 3.94489,0 7.14286,11.51268 7.14286,25.71429 z"
       transform="matrix(0.40200601,0,0,0.15522114,-28.370614,-54.91709)" />
    <path
       sodipodi:type="arc"
       style="fill:#000000;stroke:#000000;stroke-width:4;stroke-miterlimit:4;stroke-opacity:1;stroke-dasharray:none"
       id="path4074"
       sodipodi:cx="115.74819"
       sodipodi:cy="431.92926"
       sodipodi:rx="5.6531472"
       sodipodi:ry="9.4690218"
       d="m 121.40134,431.92926 c 0,5.2296 -2.531,9.46902 -5.65315,9.46902 -3.12215,0 -5.65315,-4.23942 -5.65315,-9.46902 0,-5.2296 2.531,-9.46902 5.65315,-9.46902 3.12215,0 5.65315,4.23942 5.65315,9.46902 z"
       transform="matrix(0.17330582,0,0,0.17330582,-6.5629867,-63.082159)" />
    <path
       sodipodi:type="arc"
       style="fill:#f9f9f9;stroke:#000000;stroke-width:0;stroke-miterlimit:4;stroke-opacity:1;stroke-dasharray:none;filter:url(#filter4118)"
       id="path4078"
       sodipodi:cx="108.3991"
       sodipodi:cy="431.64661"
       sodipodi:rx="3.6745458"
       sodipodi:ry="4.9465036"
       d="m 112.07365,431.64661 c 0,2.73187 -1.64515,4.9465 -3.67455,4.9465 -2.02939,0 -3.67454,-2.21463 -3.67454,-4.9465 0,-2.73188 1.64515,-4.94651 3.67454,-4.94651 2.0294,0 3.67455,2.21463 3.67455,4.94651 z"
       transform="matrix(0.16168026,4.7662394e-4,-5.1731788e-4,0.15459289,-3.5463177,-55.50808)"
       inkscape:transform-center-x="0.30005162"
       inkscape:transform-center-y="-0.5963836" />
    <path
       style="fill:#000000;stroke:#000000;stroke-width:0;stroke-miterlimit:4;stroke-opacity:1;stroke-dasharray:none"
       id="path4122"
       d="m 4.7781763,9.7397221 c -0.07302,-0.03116 -0.147804,-0.05768 -0.222587,-0.08421 -0.0552,-0.01322 -0.107647,-0.03254 -0.159575,-0.05501 -0.04711,-0.02373 -0.08834,-0.0549 -0.126411,-0.09109 -0.03916,-0.04355 -0.07256,-0.09153 -0.103612,-0.141055 -0.0366,-0.054 -0.07218,-0.108826 -0.10816,-0.163334 -0.02987,-0.03684 -0.05715,-0.07527 -0.08537,-0.113248 -0.03294,-0.0339 -0.05791,-0.07402 -0.08664,-0.1112 -0.03083,-0.03902 -0.05246,-0.08321 -0.07225,-0.128508 -0.02551,-0.04446 -0.04518,-0.09135 -0.06404,-0.138906 -0.02058,-0.06198 -0.04429,-0.122845 -0.06346,-0.185296 -0.02155,-0.05485 -0.03331,-0.11247 -0.04988,-0.168822 -0.01524,-0.05054 -0.0387,-0.09752 -0.06161,-0.144851 -0.02424,-0.0524 -0.03025,-0.110273 -0.03454,-0.167155 -0.0075,-0.05097 -0.01688,-0.101507 -0.02197,-0.152816 -0.0036,-0.0553 -0.01486,-0.109668 -0.02153,-0.164637 -0.0059,-0.06063 -0.0067,-0.121557 -0.0072,-0.182416 0.0043,-0.05202 -0.0067,-0.102325 -0.01413,-0.15334 -0.0078,-0.05797 -0.0089,-0.116553 -0.01008,-0.174952 -6.41e-4,-0.06337 -3.29e-4,-0.126745 -4.33e-4,-0.19012 -3.29e-4,-0.05714 -1.36e-4,-0.114269 -3.2e-5,-0.171405 2.25e-4,-0.06046 1.46e-4,-0.120927 -4.4e-5,-0.181392 -1.74e-4,-0.05168 -2.43e-4,-0.103363 -2.95e-4,-0.155044 -9.19e-4,-0.04991 0.0083,-0.09956 0.01834,-0.1483 0.01356,-0.04975 0.0318,-0.09801 0.04774,-0.14701 0.02692,-0.0805 0.05557,-0.160429 0.08383,-0.240483 0.0039,-0.01033 0.0078,-0.02064 0.01169,-0.03096 0,0 0.328211,-0.152187 0.328211,-0.152187 l 0,0 c -0.0042,0.01038 -0.0083,0.02077 -0.01245,0.03115 -0.03224,0.07751 -0.05626,0.158816 -0.08397,0.238007 -0.01463,0.04883 -0.03107,0.09676 -0.04673,0.145164 -0.01573,0.04379 -0.01989,0.09365 -0.02302,0.139721 -3.8e-5,0.05178 -1.08e-4,0.103559 -2.94e-4,0.155339 -1.91e-4,0.06049 -2.78e-4,0.120976 -7.3e-5,0.181465 6.8e-5,0.05719 1.91e-4,0.114385 -2.6e-4,0.171578 -2.08e-4,0.06313 -2.08e-4,0.126274 4.68e-4,0.189404 6.59e-4,0.05691 0.0015,0.113971 0.0086,0.170533 0.0076,0.05264 0.02049,0.104459 0.01553,0.158157 4.16e-4,0.05962 8.84e-4,0.119342 0.006,0.178781 0.0058,0.05535 0.01738,0.109833 0.02232,0.165147 0.0042,0.05174 0.01246,0.102817 0.02203,0.153828 0.0028,0.05248 0.0064,0.106149 0.0281,0.154805 0.02354,0.04924 0.04781,0.09801 0.06445,0.150176 0.01612,0.05647 0.02751,0.114138 0.04882,0.169067 0.01787,0.06169 0.04218,0.121099 0.0626,0.18195 0.01919,0.04706 0.03842,0.09371 0.06397,0.137831 0.01841,0.04279 0.03903,0.08417 0.06803,0.120941 0.02822,0.03802 0.0551,0.07691 0.08771,0.111482 0.02756,0.03904 0.05581,0.07736 0.08435,0.115758 0.03573,0.05481 0.07177,0.109505 0.108392,0.16367 0.03031,0.04636 0.06149,0.09231 0.09968,0.132668 0.03611,0.03254 0.07544,0.06082 0.12018,0.08052 0.05082,0.02213 0.103991,0.03696 0.156493,0.05447 0.07408,0.02779 0.148033,0.05634 0.223325,0.08057 0,0 -0.300156,0.205563 -0.300156,0.205563 z"
       inkscape:connector-curvature="0" />
    <path
       style="fill:#000000;stroke:#000000;stroke-width:0;stroke-miterlimit:4;stroke-opacity:1;stroke-dasharray:none"
       id="path4122-5"
       d="m 7.2436463,8.4275751 c -0.07302,-0.03116 -0.147806,-0.05768 -0.222587,-0.08421 -0.0552,-0.01322 -0.107647,-0.03253 -0.159577,-0.05501 -0.04711,-0.02373 -0.08834,-0.0549 -0.126411,-0.09109 -0.03915,-0.04355 -0.07256,-0.09153 -0.103611,-0.141055 -0.0366,-0.054 -0.07218,-0.108826 -0.10816,-0.163334 -0.02987,-0.03684 -0.05715,-0.07527 -0.08537,-0.113248 -0.03294,-0.0339 -0.05791,-0.07402 -0.08664,-0.1112 -0.03083,-0.03901 -0.05246,-0.08321 -0.07225,-0.128508 -0.02551,-0.04446 -0.04518,-0.09135 -0.06404,-0.138906 -0.02058,-0.06198 -0.04429,-0.122845 -0.06346,-0.185296 -0.02156,-0.05485 -0.03331,-0.11247 -0.04988,-0.168822 -0.01523,-0.05054 -0.0387,-0.09752 -0.0616,-0.144851 -0.02424,-0.0524 -0.03025,-0.110272 -0.03454,-0.167155 -0.0075,-0.05097 -0.01688,-0.101507 -0.02197,-0.152816 -0.0036,-0.0553 -0.01485,-0.109668 -0.02153,-0.164637 -0.0059,-0.06063 -0.0067,-0.121557 -0.0072,-0.182416 0.0043,-0.05202 -0.0067,-0.102325 -0.01412,-0.15334 -0.0078,-0.05797 -0.0089,-0.116553 -0.01009,-0.174952 -6.93e-4,-0.06337 -3.47e-4,-0.126745 -3.47e-4,-0.19012 -3.46e-4,-0.05714 -1.35e-4,-0.114269 -3.3e-5,-0.171404 1.74e-4,-0.06046 1.48e-4,-0.120928 -4.3e-5,-0.181393 -1.73e-4,-0.05168 -1.73e-4,-0.103363 -3.47e-4,-0.155044 -8.66e-4,-0.04991 0.0084,-0.09956 0.01834,-0.1483 0.01355,-0.04975 0.0318,-0.09801 0.04774,-0.14701 0.02692,-0.0805 0.05557,-0.160429 0.08383,-0.240483 0.0039,-0.01033 0.0078,-0.02064 0.01168,-0.03096 0,0 0.32821,-0.152187 0.32821,-0.152187 l 0,0 c -0.0041,0.01038 -0.0083,0.02077 -0.01244,0.03115 -0.03224,0.07751 -0.05627,0.158815 -0.08397,0.238006 -0.01463,0.04883 -0.03107,0.09676 -0.04673,0.145164 -0.01574,0.04379 -0.01989,0.09365 -0.02302,0.139721 -3.9e-5,0.05178 -1.09e-4,0.103559 -3.46e-4,0.155339 -1.74e-4,0.06049 -3.47e-4,0.120976 -7.3e-5,0.181465 6.8e-5,0.05719 1.73e-4,0.114386 -3.47e-4,0.171578 -1.73e-4,0.06313 -1.73e-4,0.126274 5.2e-4,0.189404 6.94e-4,0.05691 0.0016,0.113972 0.0085,0.170533 0.0076,0.05264 0.02048,0.104459 0.01553,0.158157 3.47e-4,0.05962 8.67e-4,0.119342 0.006,0.178781 0.0058,0.05535 0.01738,0.109833 0.02232,0.165147 0.0042,0.05174 0.01246,0.102817 0.02203,0.153828 0.0028,0.05248 0.0064,0.106149 0.0281,0.154805 0.02354,0.04924 0.04781,0.09801 0.06445,0.150176 0.01612,0.05647 0.02751,0.114138 0.04882,0.169067 0.01787,0.06169 0.04218,0.121099 0.0626,0.181951 0.01919,0.04706 0.03842,0.09371 0.06397,0.13783 0.01841,0.04279 0.03903,0.08417 0.06803,0.120941 0.02822,0.03802 0.0551,0.07691 0.08771,0.111483 0.02756,0.03904 0.05581,0.07736 0.08435,0.115757 0.03573,0.05481 0.07177,0.109505 0.108392,0.16367 0.03031,0.04636 0.06148,0.0923 0.09968,0.132668 0.03611,0.03254 0.07544,0.06082 0.120179,0.08052 0.05082,0.02213 0.103992,0.03696 0.156494,0.05447 0.07408,0.02779 0.148032,0.05634 0.223325,0.08057 0,0 -0.300155,0.205563 -0.300155,0.205563 z"
       inkscape:connector-curvature="0" />
    <path
       style="fill:#000000;stroke:#000000;stroke-width:0;stroke-miterlimit:4;stroke-opacity:1;stroke-dasharray:none"
       id="path4122-1"
       d="m 10.084843,7.8397411 c -0.07302,-0.03116 -0.1478037,-0.05768 -0.2225867,-0.08422 -0.0552,-0.01322 -0.107648,-0.03253 -0.159575,-0.05501 -0.04711,-0.02373 -0.08834,-0.0549 -0.126411,-0.09109 -0.03916,-0.04355 -0.07256,-0.09153 -0.103613,-0.141055 -0.0366,-0.054 -0.07218,-0.108826 -0.108158,-0.163334 -0.02987,-0.03684 -0.05715,-0.07527 -0.08537,-0.113248 -0.03294,-0.0339 -0.05791,-0.07402 -0.08664,-0.1112 -0.03082,-0.03901 -0.05246,-0.08321 -0.07225,-0.128508 -0.02551,-0.04446 -0.04518,-0.09135 -0.06404,-0.138907 -0.02058,-0.06198 -0.04429,-0.122844 -0.06346,-0.185295 -0.02155,-0.05485 -0.03331,-0.11247 -0.04988,-0.168822 -0.01523,-0.05054 -0.0387,-0.09752 -0.06161,-0.144851 -0.02423,-0.0524 -0.03025,-0.110273 -0.03454,-0.167155 -0.0075,-0.05097 -0.01688,-0.101507 -0.02197,-0.152816 -0.0036,-0.0553 -0.01485,-0.109668 -0.02153,-0.164637 -0.0059,-0.06063 -0.0067,-0.121557 -0.0072,-0.182417 0.0043,-0.05202 -0.0067,-0.102325 -0.01412,-0.153339 -0.0078,-0.05797 -0.0089,-0.116553 -0.01009,-0.174952 -6.93e-4,-0.06337 -3.46e-4,-0.126746 -3.46e-4,-0.19012 -3.47e-4,-0.05714 -1.37e-4,-0.114269 -3.3e-5,-0.171405 1.73e-4,-0.06046 1.45e-4,-0.120927 -4.3e-5,-0.181392 -1.74e-4,-0.05168 -1.74e-4,-0.103363 -3.47e-4,-0.155045 -8.67e-4,-0.04991 0.0084,-0.09956 0.01833,-0.148299 0.01355,-0.04975 0.0318,-0.09801 0.04774,-0.14701 0.02693,-0.0805 0.05558,-0.160429 0.08383,-0.240483 0.0039,-0.01033 0.0078,-0.02064 0.01168,-0.03096 0,0 0.32821,-0.152186 0.32821,-0.152186 l 0,0 c -0.0041,0.01038 -0.0083,0.02077 -0.01244,0.03115 -0.03223,0.07751 -0.05626,0.158816 -0.08397,0.238006 -0.01463,0.04883 -0.03107,0.09676 -0.04673,0.145165 -0.01574,0.04379 -0.01989,0.09365 -0.02302,0.139721 -3.8e-5,0.05178 -1.09e-4,0.103559 -3.46e-4,0.155339 -1.74e-4,0.06049 -3.47e-4,0.120976 -7.3e-5,0.181465 6.7e-5,0.05719 1.73e-4,0.114385 -1.74e-4,0.171578 -1.73e-4,0.06313 -1.73e-4,0.126274 5.2e-4,0.189404 6.94e-4,0.05691 0.0016,0.113971 0.0085,0.170533 0.0076,0.05264 0.02049,0.104458 0.01553,0.158157 3.46e-4,0.05962 8.66e-4,0.119342 0.006,0.178781 0.0058,0.05535 0.01738,0.109832 0.02232,0.165146 0.0042,0.05174 0.01246,0.102817 0.02203,0.153828 0.0028,0.05248 0.0064,0.10615 0.0281,0.154806 0.02354,0.04924 0.04781,0.09801 0.06445,0.150176 0.01612,0.05647 0.02751,0.114138 0.04882,0.169067 0.01787,0.06169 0.04218,0.121099 0.0626,0.18195 0.01919,0.04706 0.03842,0.09371 0.06397,0.13783 0.0184,0.0428 0.03903,0.08417 0.06802,0.120942 0.02822,0.03802 0.0551,0.07691 0.08771,0.111482 0.02756,0.03904 0.05581,0.07736 0.08435,0.115758 0.03573,0.05481 0.07177,0.109505 0.108391,0.16367 0.03031,0.04636 0.06149,0.0923 0.09968,0.132668 0.03611,0.03254 0.07544,0.06082 0.1201807,0.08052 0.05082,0.02213 0.10399,0.03696 0.156493,0.05447 0.07408,0.02779 0.148033,0.05634 0.223326,0.08057 0,0 -0.300157,0.205563 -0.300157,0.205563 z"
       inkscape:connector-curvature="0" />
    <path
       style="fill:#000000;stroke:#000000;stroke-width:0;stroke-miterlimit:4;stroke-opacity:1;stroke-dasharray:none"
       id="path4122-6"
       d="m 13.121986,7.3253871 c -0.07302,-0.03116 -0.147804,-0.05768 -0.222587,-0.08422 -0.0552,-0.01322 -0.107648,-0.03254 -0.159575,-0.05501 -0.04711,-0.02373 -0.08834,-0.0549 -0.126411,-0.09109 -0.03916,-0.04355 -0.07257,-0.09153 -0.103613,-0.141056 -0.0366,-0.054 -0.07218,-0.108825 -0.10816,-0.163333 -0.02987,-0.03684 -0.05715,-0.07527 -0.08537,-0.113249 -0.03294,-0.0339 -0.05791,-0.07402 -0.08664,-0.1112 -0.03082,-0.03901 -0.05246,-0.08321 -0.07225,-0.128508 -0.02551,-0.04446 -0.04518,-0.09135 -0.06404,-0.138906 -0.02058,-0.06198 -0.04429,-0.122844 -0.06346,-0.185295 -0.02155,-0.05485 -0.03331,-0.11247 -0.04988,-0.168823 -0.01523,-0.05054 -0.0387,-0.09752 -0.06161,-0.14485 -0.02423,-0.0524 -0.03025,-0.110273 -0.03454,-0.167156 -0.0075,-0.05097 -0.01688,-0.101506 -0.02197,-0.152815 -0.0036,-0.0553 -0.01485,-0.109668 -0.02153,-0.164637 -0.0059,-0.06063 -0.0067,-0.121557 -0.0072,-0.182417 0.0043,-0.05202 -0.0067,-0.102325 -0.01412,-0.153339 -0.0078,-0.05797 -0.0089,-0.116554 -0.01009,-0.174952 -6.93e-4,-0.06337 -3.46e-4,-0.126746 -3.46e-4,-0.19012 -3.47e-4,-0.05714 -1.36e-4,-0.11427 -3.2e-5,-0.171405 1.74e-4,-0.06047 1.46e-4,-0.120928 -4.5e-5,-0.181392 -1.73e-4,-0.05168 -1.73e-4,-0.103363 -3.46e-4,-0.155045 -8.67e-4,-0.04991 0.0084,-0.09956 0.01834,-0.148299 0.01355,-0.04975 0.0318,-0.09801 0.04774,-0.147011 0.02693,-0.0805 0.05558,-0.160429 0.08383,-0.240482 0.0039,-0.01033 0.0078,-0.02064 0.01168,-0.03096 0,0 0.32821,-0.152187 0.32821,-0.152187 l 0,0 c -0.0041,0.01038 -0.0083,0.02077 -0.01244,0.03115 -0.03224,0.07751 -0.05626,0.158816 -0.08397,0.238006 -0.01463,0.04883 -0.03107,0.09676 -0.04673,0.145164 -0.01574,0.04379 -0.01989,0.09366 -0.02302,0.139721 -3.8e-5,0.05178 -1.09e-4,0.103559 -3.47e-4,0.15534 -1.73e-4,0.06049 -3.46e-4,0.120976 -7.3e-5,0.181465 6.8e-5,0.05719 1.74e-4,0.114385 -3.46e-4,0.171578 -1.74e-4,0.06313 -1.74e-4,0.126274 5.2e-4,0.189404 6.93e-4,0.05691 0.0016,0.113971 0.0085,0.170533 0.0076,0.05264 0.02048,0.104458 0.01553,0.158157 3.46e-4,0.05962 8.66e-4,0.119342 0.006,0.17878 0.0058,0.05535 0.01738,0.109833 0.02232,0.165147 0.0042,0.05174 0.01246,0.102817 0.02203,0.153828 0.0028,0.05248 0.0064,0.10615 0.0281,0.154805 0.02354,0.04924 0.04781,0.09801 0.06445,0.150177 0.01612,0.05647 0.02751,0.114137 0.04882,0.169067 0.01787,0.06169 0.04218,0.121099 0.0626,0.18195 0.01919,0.04706 0.03842,0.09371 0.06397,0.13783 0.0184,0.04279 0.03903,0.08417 0.06803,0.120941 0.02822,0.03802 0.0551,0.07691 0.08771,0.111483 0.02756,0.03904 0.05581,0.07735 0.08435,0.115758 0.03573,0.05481 0.07177,0.109505 0.108391,0.16367 0.03031,0.04636 0.06149,0.0923 0.09968,0.132667 0.03611,0.03254 0.07544,0.06082 0.120181,0.08052 0.05082,0.02213 0.10399,0.03696 0.156491,0.05447 0.07408,0.02779 0.148035,0.05634 0.223326,0.08057 0,0 -0.300156,0.205564 -0.300156,0.205564 z"
       inkscape:connector-curvature="0" />
    <path
       style="fill:#000000;stroke:#000000;stroke-width:0;stroke-miterlimit:4;stroke-opacity:1;stroke-dasharray:none"
       id="path4122-6-4"
       d="m 22.15037,9.7257101 c 0.07302,-0.03116 0.147804,-0.05768 0.222587,-0.08421 0.0552,-0.01322 0.107647,-0.03254 0.159575,-0.05501 0.04711,-0.02373 0.08834,-0.0549 0.126411,-0.09109 0.03915,-0.04355 0.07256,-0.09153 0.103612,-0.141056 0.0366,-0.054 0.07218,-0.108825 0.10816,-0.163334 0.02987,-0.03684 0.05715,-0.07527 0.08537,-0.113248 0.03294,-0.0339 0.05791,-0.07401 0.08664,-0.1112 0.03082,-0.03901 0.05246,-0.08321 0.07225,-0.128508 0.02551,-0.04446 0.04518,-0.09135 0.06404,-0.138906 0.02058,-0.06198 0.04429,-0.122845 0.06346,-0.185295 0.02155,-0.05485 0.03331,-0.112471 0.04988,-0.168823 0.01523,-0.05054 0.0387,-0.09752 0.06161,-0.144851 0.02424,-0.0524 0.03025,-0.110272 0.03454,-0.167155 0.0075,-0.05097 0.01688,-0.101507 0.02197,-0.152816 0.0036,-0.0553 0.01485,-0.109668 0.02153,-0.164637 0.0059,-0.06063 0.0067,-0.121556 0.0072,-0.182416 -0.0043,-0.05202 0.0067,-0.102325 0.01412,-0.153339 0.0078,-0.05797 0.0089,-0.116554 0.01009,-0.174953 6.93e-4,-0.06337 3.46e-4,-0.126745 3.46e-4,-0.19012 3.47e-4,-0.05714 1.36e-4,-0.114269 3.2e-5,-0.171404 -1.74e-4,-0.06047 -1.46e-4,-0.120928 4.5e-5,-0.181393 1.73e-4,-0.05168 1.73e-4,-0.103363 3.46e-4,-0.155044 8.67e-4,-0.04991 -0.0084,-0.09956 -0.01834,-0.1483 -0.01355,-0.04975 -0.0318,-0.09801 -0.04774,-0.14701 -0.02692,-0.0805 -0.05557,-0.160429 -0.08383,-0.240482 -0.0039,-0.01033 -0.0078,-0.02064 -0.01168,-0.03096 0,0 -0.32821,-0.152187 -0.32821,-0.152187 l 0,0 c 0.0041,0.01038 0.0083,0.02077 0.01244,0.03115 0.03224,0.07751 0.05626,0.158815 0.08397,0.238006 0.01463,0.04883 0.03107,0.09676 0.04673,0.145164 0.01574,0.04379 0.01989,0.09365 0.02302,0.139721 3.8e-5,0.05178 1.09e-4,0.103559 3.47e-4,0.155339 1.73e-4,0.06049 3.47e-4,0.120976 7.3e-5,0.181465 -6.8e-5,0.05719 -1.74e-4,0.114386 3.46e-4,0.171578 1.74e-4,0.06313 1.74e-4,0.126274 -5.2e-4,0.189405 -6.93e-4,0.05691 -0.0016,0.113971 -0.0085,0.170532 -0.0076,0.05264 -0.02048,0.104459 -0.01553,0.158158 -3.46e-4,0.05962 -8.66e-4,0.119341 -0.006,0.17878 -0.0058,0.05535 -0.01738,0.109833 -0.02232,0.165147 -0.0042,0.05174 -0.01246,0.102817 -0.02203,0.153828 -0.0028,0.05248 -0.0064,0.10615 -0.0281,0.154805 -0.02354,0.04924 -0.04781,0.09801 -0.06445,0.150177 -0.01612,0.05647 -0.02751,0.114137 -0.04882,0.169066 -0.01787,0.06169 -0.04218,0.1211 -0.0626,0.181951 -0.01919,0.04706 -0.03842,0.09371 -0.06397,0.13783 -0.01841,0.04279 -0.03903,0.08417 -0.06803,0.120941 -0.02823,0.03802 -0.0551,0.07691 -0.08771,0.111483 -0.02756,0.03904 -0.05581,0.07736 -0.08436,0.115758 -0.03573,0.05481 -0.07177,0.109505 -0.10839,0.16367 -0.03031,0.04636 -0.06149,0.0923 -0.09968,0.132667 -0.03611,0.03254 -0.07544,0.06082 -0.12018,0.08052 -0.05082,0.02213 -0.103991,0.03696 -0.156492,0.05447 -0.07408,0.02779 -0.148034,0.05634 -0.223325,0.08057 0,0 0.300155,0.205563 0.300155,0.205563 z"
       inkscape:connector-curvature="0" />
    <path
       style="fill:#000000;stroke:#000000;stroke-width:0;stroke-miterlimit:4;stroke-opacity:1;stroke-dasharray:none"
       id="path4122-6-4-3"
       d="m 19.921499,8.4520701 c 0.07302,-0.03116 0.147804,-0.05768 0.222587,-0.08421 0.0552,-0.01322 0.107647,-0.03253 0.159575,-0.05501 0.04711,-0.02373 0.08834,-0.0549 0.126411,-0.09109 0.03915,-0.04355 0.07256,-0.09153 0.103613,-0.141056 0.0366,-0.054 0.07218,-0.108825 0.10816,-0.163334 0.02987,-0.03684 0.05715,-0.07527 0.08537,-0.113248 0.03294,-0.0339 0.05791,-0.07402 0.08664,-0.1112 0.03082,-0.03901 0.05246,-0.08321 0.07225,-0.128508 0.02551,-0.04446 0.04518,-0.09135 0.06404,-0.138906 0.02058,-0.06198 0.04429,-0.122845 0.06346,-0.185295 0.02155,-0.05485 0.03331,-0.112471 0.04988,-0.168823 0.01523,-0.05054 0.0387,-0.09752 0.06161,-0.144851 0.02424,-0.0524 0.03025,-0.110272 0.03454,-0.167155 0.0075,-0.05097 0.01688,-0.101507 0.02197,-0.152816 0.0036,-0.0553 0.01485,-0.109668 0.02153,-0.164637 0.0059,-0.06063 0.0067,-0.121556 0.0072,-0.182416 -0.0043,-0.05202 0.0067,-0.102325 0.01412,-0.15334 0.0078,-0.05797 0.0089,-0.116553 0.01009,-0.174952 6.93e-4,-0.06337 3.47e-4,-0.126745 3.47e-4,-0.19012 3.46e-4,-0.05714 1.35e-4,-0.114269 3.1e-5,-0.171404 -1.73e-4,-0.06047 -1.46e-4,-0.120928 4.5e-5,-0.181393 1.73e-4,-0.05168 1.73e-4,-0.103363 3.47e-4,-0.155044 8.66e-4,-0.04991 -0.0084,-0.09956 -0.01834,-0.1483 -0.01355,-0.04975 -0.0318,-0.09801 -0.04774,-0.14701 -0.02692,-0.0805 -0.05558,-0.160429 -0.08383,-0.240483 -0.0039,-0.01033 -0.0078,-0.02064 -0.01168,-0.03096 0,0 -0.32821,-0.152187 -0.32821,-0.152187 l 0,0 c 0.0041,0.01038 0.0083,0.02077 0.01244,0.03115 0.03224,0.07751 0.05626,0.158815 0.08397,0.238006 0.01463,0.04883 0.03107,0.09676 0.04673,0.145164 0.01574,0.04379 0.01989,0.09365 0.02302,0.139721 3.8e-5,0.05178 1.09e-4,0.103559 3.46e-4,0.155339 1.74e-4,0.06049 3.47e-4,0.120976 7.3e-5,0.181465 -6.7e-5,0.05719 -1.73e-4,0.114386 3.47e-4,0.171578 1.73e-4,0.06313 1.73e-4,0.126274 -5.2e-4,0.189404 -6.93e-4,0.05691 -0.0016,0.113972 -0.0085,0.170533 -0.0076,0.05264 -0.02049,0.104459 -0.01553,0.158158 -3.47e-4,0.05962 -8.67e-4,0.119341 -0.006,0.17878 -0.0058,0.05535 -0.01738,0.109833 -0.02232,0.165147 -0.0042,0.05174 -0.01246,0.102817 -0.02203,0.153828 -0.0028,0.05248 -0.0064,0.106149 -0.0281,0.154805 -0.02354,0.04924 -0.04781,0.09801 -0.06445,0.150177 -0.01612,0.05647 -0.02751,0.114137 -0.04882,0.169066 -0.01787,0.06169 -0.04218,0.121099 -0.0626,0.181951 -0.01919,0.04706 -0.03842,0.09371 -0.06397,0.13783 -0.01841,0.04279 -0.03903,0.08417 -0.06803,0.120941 -0.02822,0.03802 -0.0551,0.07691 -0.08771,0.111483 -0.02756,0.03904 -0.05581,0.07736 -0.08436,0.115758 -0.03573,0.05481 -0.07177,0.109505 -0.108391,0.16367 -0.03031,0.04636 -0.06149,0.0923 -0.09968,0.132667 -0.03611,0.03254 -0.07544,0.06082 -0.120181,0.08052 -0.05082,0.02213 -0.10399,0.03696 -0.156492,0.05447 -0.07408,0.02779 -0.148034,0.05634 -0.223325,0.08057 0,0 0.300155,0.205563 0.300155,0.205563 z"
       inkscape:connector-curvature="0" />
    <path
       style="fill:#000000;stroke:#000000;stroke-width:0;stroke-miterlimit:4;stroke-opacity:1;stroke-dasharray:none"
       id="path4122-6-4-5"
       d="m 17.472191,7.6682911 c 0.07302,-0.03116 0.147803,-0.05768 0.222587,-0.08421 0.0552,-0.01322 0.107647,-0.03254 0.159574,-0.05501 0.04711,-0.02373 0.08834,-0.0549 0.126411,-0.09109 0.03915,-0.04355 0.07256,-0.09153 0.103613,-0.141055 0.0366,-0.054 0.07218,-0.108826 0.10816,-0.163334 0.02987,-0.03684 0.05715,-0.07527 0.08537,-0.113248 0.03294,-0.0339 0.05791,-0.07402 0.08664,-0.1112 0.03082,-0.03901 0.05246,-0.08321 0.07225,-0.128508 0.02551,-0.04446 0.04519,-0.09135 0.06404,-0.138906 0.02058,-0.06198 0.04429,-0.122845 0.06346,-0.185296 0.02155,-0.05485 0.03331,-0.11247 0.04988,-0.168822 0.01523,-0.05054 0.0387,-0.09752 0.06161,-0.144851 0.02424,-0.0524 0.03025,-0.110272 0.03454,-0.167155 0.0075,-0.05097 0.01688,-0.101507 0.02197,-0.152816 0.0036,-0.0553 0.01485,-0.109668 0.02153,-0.164637 0.0059,-0.06063 0.0067,-0.121557 0.0072,-0.182416 -0.0043,-0.05202 0.0067,-0.102325 0.01412,-0.15334 0.0078,-0.05797 0.0089,-0.116553 0.01009,-0.174952 6.93e-4,-0.06337 3.46e-4,-0.126745 3.46e-4,-0.19012 3.47e-4,-0.05713 1.35e-4,-0.114269 3.1e-5,-0.171404 -1.73e-4,-0.06047 -1.45e-4,-0.120928 4.5e-5,-0.181393 1.74e-4,-0.05168 1.74e-4,-0.103363 3.47e-4,-0.155044 8.67e-4,-0.04991 -0.0084,-0.09956 -0.01834,-0.1483 -0.01355,-0.04975 -0.0318,-0.09801 -0.04774,-0.14701 -0.02692,-0.0805 -0.05558,-0.160429 -0.08383,-0.240483 -0.0039,-0.01033 -0.0078,-0.02064 -0.01168,-0.03096 0,0 -0.32821,-0.152187 -0.32821,-0.152187 l 0,0 c 0.0041,0.01038 0.0083,0.02077 0.01244,0.03115 0.03224,0.07751 0.05626,0.158815 0.08397,0.238006 0.01463,0.04883 0.03107,0.09676 0.04673,0.145164 0.01574,0.04379 0.01989,0.09365 0.02302,0.139721 3.8e-5,0.05178 1.09e-4,0.103559 3.47e-4,0.155339 1.73e-4,0.06049 3.46e-4,0.120976 7.2e-5,0.181465 -6.7e-5,0.05719 -1.73e-4,0.114386 3.47e-4,0.171578 1.73e-4,0.06313 1.73e-4,0.126274 -5.2e-4,0.189404 -6.93e-4,0.05691 -0.0016,0.113971 -0.0085,0.170533 -0.0076,0.05264 -0.02049,0.104459 -0.01553,0.158157 -3.47e-4,0.05962 -8.67e-4,0.119342 -0.006,0.178781 -0.0058,0.05535 -0.01738,0.109833 -0.02232,0.165147 -0.0042,0.05174 -0.01246,0.102817 -0.02203,0.153828 -0.0028,0.05248 -0.0064,0.106149 -0.0281,0.154805 -0.02354,0.04924 -0.04781,0.09801 -0.06445,0.150176 -0.01612,0.05647 -0.02751,0.114138 -0.04882,0.169067 -0.01787,0.06169 -0.04218,0.121099 -0.0626,0.181951 -0.01919,0.04706 -0.03842,0.09371 -0.06397,0.13783 -0.01841,0.04279 -0.03903,0.08417 -0.06803,0.120941 -0.02823,0.03802 -0.0551,0.07691 -0.08771,0.111483 -0.02756,0.03904 -0.05581,0.07735 -0.08436,0.115757 -0.03573,0.05481 -0.07177,0.109505 -0.108391,0.16367 -0.03031,0.04636 -0.06149,0.0923 -0.09968,0.132668 -0.03611,0.03254 -0.07544,0.06082 -0.12018,0.08052 -0.05082,0.02213 -0.103991,0.03696 -0.156492,0.05447 -0.07408,0.02779 -0.148035,0.05634 -0.223326,0.08057 0,0 0.300156,0.205563 0.300156,0.205563 z"
       inkscape:connector-curvature="0" />
    <path
       style="fill:#000000;stroke:#000000;stroke-width:0;stroke-miterlimit:4;stroke-opacity:1;stroke-dasharray:none"
       id="path4122-6-4-1"
       d="m 14.753459,7.3008931 c 0.07302,-0.03116 0.147804,-0.05768 0.222587,-0.08421 0.0552,-0.01322 0.107647,-0.03254 0.159575,-0.05501 0.04711,-0.02373 0.08834,-0.0549 0.126411,-0.09109 0.03916,-0.04355 0.07256,-0.09153 0.103612,-0.141056 0.0366,-0.054 0.07218,-0.108825 0.108161,-0.163334 0.02987,-0.03684 0.05715,-0.07527 0.08537,-0.113248 0.03294,-0.0339 0.05791,-0.07402 0.08664,-0.1112 0.03082,-0.03901 0.05246,-0.08321 0.07225,-0.128508 0.02551,-0.04446 0.04518,-0.09135 0.06404,-0.138906 0.02058,-0.06198 0.04429,-0.122845 0.06346,-0.185295 0.02155,-0.05485 0.03331,-0.112471 0.04988,-0.168823 0.01523,-0.05054 0.0387,-0.09752 0.06161,-0.144851 0.02423,-0.0524 0.03025,-0.110272 0.03454,-0.167155 0.0075,-0.05097 0.01688,-0.101507 0.02197,-0.152816 0.0036,-0.0553 0.01485,-0.109668 0.02153,-0.164637 0.0059,-0.06063 0.0067,-0.121556 0.0072,-0.182416 -0.0043,-0.05202 0.0067,-0.102325 0.01412,-0.15334 0.0078,-0.05797 0.0089,-0.116553 0.01009,-0.174952 6.93e-4,-0.06337 3.47e-4,-0.126745 3.47e-4,-0.19012 3.46e-4,-0.05713 1.35e-4,-0.114269 3.1e-5,-0.171404 -1.74e-4,-0.06047 -1.46e-4,-0.120928 4.5e-5,-0.181393 1.73e-4,-0.05168 1.73e-4,-0.103363 3.46e-4,-0.155044 8.67e-4,-0.04991 -0.0084,-0.09956 -0.01834,-0.1483 -0.01355,-0.04975 -0.0318,-0.09801 -0.04774,-0.14701 -0.02692,-0.0805 -0.05557,-0.160429 -0.08383,-0.240483 -0.0039,-0.01033 -0.0078,-0.02064 -0.01168,-0.03096 0,0 -0.32821,-0.152187 -0.32821,-0.152187 l 0,0 c 0.0041,0.01038 0.0083,0.02077 0.01244,0.03115 0.03224,0.07751 0.05626,0.158815 0.08397,0.238006 0.01463,0.04883 0.03107,0.09676 0.04673,0.145164 0.01574,0.04379 0.01989,0.09366 0.02302,0.139721 3.9e-5,0.05178 1.1e-4,0.103559 3.47e-4,0.155339 1.73e-4,0.06049 3.47e-4,0.120976 7.3e-5,0.181465 -6.8e-5,0.05719 -1.73e-4,0.114386 3.46e-4,0.171578 1.74e-4,0.06313 1.74e-4,0.126274 -5.19e-4,0.189404 -6.94e-4,0.05691 -0.0016,0.113972 -0.0085,0.170533 -0.0076,0.05264 -0.02049,0.104459 -0.01553,0.158158 -3.46e-4,0.05962 -8.66e-4,0.119341 -0.006,0.17878 -0.0058,0.05535 -0.01738,0.109833 -0.02232,0.165147 -0.0042,0.05174 -0.01246,0.102817 -0.02204,0.153828 -0.0028,0.05248 -0.0064,0.106149 -0.0281,0.154805 -0.02354,0.04924 -0.04781,0.09801 -0.06445,0.150177 -0.01612,0.05647 -0.02751,0.114137 -0.04882,0.169066 -0.01787,0.06169 -0.04218,0.121099 -0.0626,0.181951 -0.01919,0.04706 -0.03842,0.09371 -0.06397,0.13783 -0.01841,0.04279 -0.03903,0.08417 -0.06803,0.120941 -0.02822,0.03802 -0.0551,0.07691 -0.08771,0.111483 -0.02756,0.03904 -0.05581,0.07735 -0.08436,0.115758 -0.03573,0.05481 -0.07177,0.109505 -0.10839,0.16367 -0.03031,0.04636 -0.06149,0.0923 -0.09968,0.132667 -0.03611,0.03254 -0.07544,0.06082 -0.120181,0.08052 -0.05082,0.02213 -0.103991,0.03696 -0.156492,0.05447 -0.07408,0.02779 -0.148034,0.05634 -0.223325,0.08057 0,0 0.300155,0.205563 0.300155,0.205563 z"
       inkscape:connector-curvature="0" />
  </g>
</svg>
